<mxfile host="app.diagrams.net" modified="2024-04-17T01:37:48.356Z" agent="Mozilla/5.0 (Windows NT 10.0; Win64; x64) AppleWebKit/537.36 (KHTML, like Gecko) Chrome/120.0.0.0 Safari/537.36 Edg/120.0.0.0" version="24.2.5" etag="E_vCxNHv2GZbiXrwVrO8" type="github">
  <diagram name="Page-1" id="RP1NdXfE6iRAn4koSq_j">
    <mxGraphModel>
      <root>
        <mxCell id="0" />
        <mxCell id="1" parent="0" />
      </root>
    </mxGraphModel>
  </diagram>
</mxfile>
